<svg version="1.1" id="Layer_1" xmlns="http://www.w3.org/2000/svg" xmlns:xlink="http://www.w3.org/1999/xlink" x="0px" y="0px"
	 width="100%" viewBox="0 0 212 64" enable-background="new 0 0 212 64" xml:space="preserve">
<path fill="#E9ECEF" opacity="1.000000" stroke="none" 
	d="
M143.000000,65.000000 
	C95.333344,65.000000 48.166691,65.000000 1.000025,65.000000 
	C1.000017,43.666683 1.000017,22.333366 1.000008,1.000037 
	C71.666634,1.000025 142.333267,1.000025 212.999908,1.000012 
	C212.999939,22.333296 212.999939,43.666592 212.999969,64.999939 
	C189.833328,65.000000 166.666672,65.000000 143.000000,65.000000 
M94.411430,40.961182 
	C96.119781,36.902596 97.828125,32.844013 99.536476,28.785427 
	C99.877693,28.829449 100.218903,28.873470 100.560120,28.917492 
	C100.560120,35.963829 100.560120,43.010166 100.560120,50.185051 
	C103.107475,50.185051 104.975700,50.185051 106.222458,50.185051 
	C106.222458,39.038448 106.222458,28.298634 106.222458,18.149338 
	C100.773201,15.829900 98.807846,18.215345 97.475883,22.307470 
	C96.104607,26.520422 94.253586,30.577221 92.219444,35.690319 
	C89.883995,28.953377 87.852242,23.092495 85.756119,17.045929 
	C83.039711,17.504957 80.796616,17.884003 78.016907,18.353725 
	C78.016907,29.187441 78.016907,39.724331 78.016907,50.581188 
	C79.750298,50.491383 81.337799,50.409138 83.062141,50.319801 
	C83.062141,46.638954 83.062134,43.331142 83.062134,40.023327 
	C83.062134,36.742825 83.062141,33.462322 83.062141,30.181820 
	C83.640633,30.132509 84.219124,30.083199 84.797615,30.033888 
	C85.573593,32.335461 86.594360,34.587730 87.070099,36.949772 
	C87.849113,40.817654 89.840668,42.349312 94.411430,40.961182 
M140.646439,24.326220 
	C139.767609,29.139723 137.803818,34.050694 138.225769,38.747337 
	C139.243195,50.072376 151.342117,54.885067 160.141113,47.912910 
	C164.476242,44.477840 165.979950,39.612343 166.446838,34.307564 
	C167.107941,26.796272 163.992645,20.311064 158.528168,17.929672 
	C152.529083,15.315308 146.452606,17.318398 140.646439,24.326220 
M46.521816,42.711700 
	C51.066490,51.476826 59.462536,53.522823 70.516647,48.538433 
	C70.516647,43.447716 70.516647,38.347748 70.516647,33.295536 
	C60.121403,31.655651 58.714649,32.222389 59.728386,37.654892 
	C61.304371,37.745819 62.919548,37.839008 64.740005,37.944038 
	C64.740005,40.419582 64.740005,42.673695 64.740005,45.003067 
	C60.626648,46.459743 57.035164,46.401794 54.298210,42.732918 
	C51.341267,38.769154 50.885281,30.244419 53.551434,26.569830 
	C57.839512,20.659838 63.277817,23.559671 68.701241,25.182138 
	C69.574821,23.034893 70.359512,21.106117 71.128357,19.216299 
	C61.124790,13.920915 49.998859,17.664637 46.833340,27.845499 
	C45.478619,32.202534 46.352791,37.252590 46.521816,42.711700 
M24.212206,49.389233 
	C26.442858,49.925430 28.669502,50.891441 30.904961,50.912289 
	C36.290161,50.962513 41.175076,46.854755 42.118286,41.974312 
	C43.121410,36.783859 41.106266,33.805347 34.836838,31.169577 
	C33.304192,30.525227 31.574247,30.093828 30.338865,29.074884 
	C29.228298,28.158892 28.672049,26.570829 27.871288,25.279221 
	C29.378283,24.544504 30.911230,23.166033 32.386208,23.225494 
	C34.615356,23.315353 36.804096,24.407555 39.487278,25.217947 
	C40.406773,23.188271 41.327358,21.156197 42.830856,17.837406 
	C37.599224,17.837406 33.137020,17.101513 29.060513,18.040358 
	C24.819361,19.017120 22.135637,22.517818 21.953228,27.266718 
	C21.776455,31.868866 24.801270,34.088242 28.449930,35.786209 
	C30.258511,36.627865 32.337723,37.098595 33.851654,38.296711 
	C35.081825,39.270267 35.651752,41.078102 36.514484,42.515949 
	C35.006638,43.336533 33.367695,45.008385 32.018223,44.800564 
	C29.204828,44.367302 26.544476,42.940266 23.313854,41.731743 
	C22.486097,42.958942 21.411417,44.552219 20.200264,46.347828 
	C21.493004,47.374298 22.510775,48.182434 24.212206,49.389233 
M178.661484,23.496254 
	C182.032104,23.098021 185.402725,22.699787 189.150131,22.257038 
	C189.323471,20.805988 189.506363,19.274813 189.698502,17.666321 
	C183.474365,17.666321 177.769348,17.666321 172.166595,17.666321 
	C172.166595,28.754461 172.166595,39.459038 172.166595,50.590561 
	C176.815659,50.590561 181.123795,50.395153 185.405045,50.650524 
	C189.026962,50.866570 190.245270,49.439053 189.530121,45.486645 
	C186.008255,45.486645 182.439178,45.486645 178.458588,45.486645 
	C178.458588,42.209789 178.458588,39.475101 178.458588,36.418819 
	C181.319672,36.244965 184.210037,36.069328 187.292709,35.882008 
	C187.292709,34.147522 187.292709,32.761288 187.292709,31.175787 
	C184.214111,31.040676 181.457138,30.919678 178.438873,30.787216 
	C178.438873,28.406975 178.438873,26.436922 178.661484,23.496254 
M131.187149,41.834278 
	C128.532104,45.181103 125.320381,46.232964 121.650291,43.666176 
	C117.726974,40.922287 116.488663,31.272894 119.254242,26.532320 
	C121.471718,22.731249 124.433716,22.324518 131.100433,24.866558 
	C131.357285,24.964495 131.726639,24.767342 132.354309,24.649212 
	C133.122391,22.872278 133.956345,20.942930 134.798340,18.994959 
	C134.116348,18.535736 133.754654,18.160532 133.317093,18.017540 
	C127.823181,16.222145 122.418831,15.913963 117.866135,20.157982 
	C112.037170,25.591726 110.114159,32.392635 111.887436,40.136829 
	C113.272072,46.183754 117.722923,50.469360 122.834595,50.986759 
	C128.605759,51.570908 132.926056,48.719589 136.377747,41.249172 
	C134.481964,41.249172 133.046036,41.249172 131.187149,41.834278 
z"/>
<path fill="#161718" opacity="1.000000" stroke="none" 
	d="
M94.054169,41.088364 
	C89.840668,42.349312 87.849113,40.817654 87.070099,36.949772 
	C86.594360,34.587730 85.573593,32.335461 84.797615,30.033888 
	C84.219124,30.083199 83.640633,30.132509 83.062141,30.181820 
	C83.062141,33.462322 83.062134,36.742825 83.062134,40.023327 
	C83.062134,43.331142 83.062141,46.638954 83.062141,50.319801 
	C81.337799,50.409138 79.750298,50.491383 78.016907,50.581188 
	C78.016907,39.724331 78.016907,29.187441 78.016907,18.353725 
	C80.796616,17.884003 83.039711,17.504957 85.756119,17.045929 
	C87.852242,23.092495 89.883995,28.953377 92.219444,35.690319 
	C94.253586,30.577221 96.104607,26.520422 97.475883,22.307470 
	C98.807846,18.215345 100.773201,15.829900 106.222458,18.149338 
	C106.222458,28.298634 106.222458,39.038448 106.222458,50.185051 
	C104.975700,50.185051 103.107475,50.185051 100.560120,50.185051 
	C100.560120,43.010166 100.560120,35.963829 100.560120,28.917492 
	C100.218903,28.873470 99.877693,28.829449 99.536476,28.785427 
	C97.828125,32.844013 96.119781,36.902596 94.054169,41.088364 
z"/>
<path fill="#131415" opacity="1.000000" stroke="none" 
	d="
M140.845825,24.009556 
	C146.452606,17.318398 152.529083,15.315308 158.528168,17.929672 
	C163.992645,20.311064 167.107941,26.796272 166.446838,34.307564 
	C165.979950,39.612343 164.476242,44.477840 160.141113,47.912910 
	C151.342117,54.885067 139.243195,50.072376 138.225769,38.747337 
	C137.803818,34.050694 139.767609,29.139723 140.845825,24.009556 
M160.054916,34.465672 
	C159.882004,32.817825 159.887939,31.126593 159.500702,29.530750 
	C158.558929,25.649429 156.537781,22.812050 152.025360,22.909540 
	C147.561157,23.005987 145.233307,25.743814 144.873459,29.767580 
	C144.570679,33.153214 144.755981,36.730717 145.549377,40.024773 
	C146.354248,43.366379 148.566040,46.012405 152.600494,45.929256 
	C156.637527,45.846058 158.421158,43.156773 159.391556,39.736305 
	C159.793549,38.319401 159.843765,36.802700 160.054916,34.465672 
z"/>
<path fill="#171819" opacity="1.000000" stroke="none" 
	d="
M46.368011,42.349724 
	C46.352791,37.252590 45.478619,32.202534 46.833340,27.845499 
	C49.998859,17.664637 61.124790,13.920915 71.128357,19.216299 
	C70.359512,21.106117 69.574821,23.034893 68.701241,25.182138 
	C63.277817,23.559671 57.839512,20.659838 53.551434,26.569830 
	C50.885281,30.244419 51.341267,38.769154 54.298210,42.732918 
	C57.035164,46.401794 60.626648,46.459743 64.740005,45.003067 
	C64.740005,42.673695 64.740005,40.419582 64.740005,37.944038 
	C62.919548,37.839008 61.304371,37.745819 59.728386,37.654892 
	C58.714649,32.222389 60.121403,31.655651 70.516647,33.295536 
	C70.516647,38.347748 70.516647,43.447716 70.516647,48.538433 
	C59.462536,53.522823 51.066490,51.476826 46.368011,42.349724 
z"/>
<path fill="#151617" opacity="1.000000" stroke="none" 
	d="
M23.870377,49.189903 
	C22.510775,48.182434 21.493004,47.374298 20.200264,46.347828 
	C21.411417,44.552219 22.486097,42.958942 23.313854,41.731743 
	C26.544476,42.940266 29.204828,44.367302 32.018223,44.800564 
	C33.367695,45.008385 35.006638,43.336533 36.514484,42.515949 
	C35.651752,41.078102 35.081825,39.270267 33.851654,38.296711 
	C32.337723,37.098595 30.258511,36.627865 28.449930,35.786209 
	C24.801270,34.088242 21.776455,31.868866 21.953228,27.266718 
	C22.135637,22.517818 24.819361,19.017120 29.060513,18.040358 
	C33.137020,17.101513 37.599224,17.837406 42.830856,17.837406 
	C41.327358,21.156197 40.406773,23.188271 39.487278,25.217947 
	C36.804096,24.407555 34.615356,23.315353 32.386208,23.225494 
	C30.911230,23.166033 29.378283,24.544504 27.871288,25.279221 
	C28.672049,26.570829 29.228298,28.158892 30.338865,29.074884 
	C31.574247,30.093828 33.304192,30.525227 34.836838,31.169577 
	C41.106266,33.805347 43.121410,36.783859 42.118286,41.974312 
	C41.175076,46.854755 36.290161,50.962513 30.904961,50.912289 
	C28.669502,50.891441 26.442858,49.925430 23.870377,49.189903 
z"/>
<path fill="#1C1D1E" opacity="1.000000" stroke="none" 
	d="
M178.550171,23.981560 
	C178.438873,26.436922 178.438873,28.406975 178.438873,30.787216 
	C181.457138,30.919678 184.214111,31.040676 187.292709,31.175787 
	C187.292709,32.761288 187.292709,34.147522 187.292709,35.882008 
	C184.210037,36.069328 181.319672,36.244965 178.458588,36.418819 
	C178.458588,39.475101 178.458588,42.209789 178.458588,45.486645 
	C182.439178,45.486645 186.008255,45.486645 189.530121,45.486645 
	C190.245270,49.439053 189.026962,50.866570 185.405045,50.650524 
	C181.123795,50.395153 176.815659,50.590561 172.166595,50.590561 
	C172.166595,39.459038 172.166595,28.754461 172.166595,17.666321 
	C177.769348,17.666321 183.474365,17.666321 189.698502,17.666321 
	C189.506363,19.274813 189.323471,20.805988 189.150131,22.257038 
	C185.402725,22.699787 182.032104,23.098021 178.550171,23.981560 
z"/>
<path fill="#161719" opacity="1.000000" stroke="none" 
	d="
M131.398621,41.541725 
	C133.046036,41.249172 134.481964,41.249172 136.377747,41.249172 
	C132.926056,48.719589 128.605759,51.570908 122.834595,50.986759 
	C117.722923,50.469360 113.272072,46.183754 111.887436,40.136829 
	C110.114159,32.392635 112.037170,25.591726 117.866135,20.157982 
	C122.418831,15.913963 127.823181,16.222145 133.317093,18.017540 
	C133.754654,18.160532 134.116348,18.535736 134.798340,18.994959 
	C133.956345,20.942930 133.122391,22.872278 132.354309,24.649212 
	C131.726639,24.767342 131.357285,24.964495 131.100433,24.866558 
	C124.433716,22.324518 121.471718,22.731249 119.254242,26.532320 
	C116.488663,31.272894 117.726974,40.922287 121.650291,43.666176 
	C125.320381,46.232964 128.532104,45.181103 131.398621,41.541725 
z"/>
<path fill="#E4E7EA" opacity="1.000000" stroke="none" 
	d="
M160.054443,34.898529 
	C159.843765,36.802700 159.793549,38.319401 159.391556,39.736305 
	C158.421158,43.156773 156.637527,45.846058 152.600494,45.929256 
	C148.566040,46.012405 146.354248,43.366379 145.549377,40.024773 
	C144.755981,36.730717 144.570679,33.153214 144.873459,29.767580 
	C145.233307,25.743814 147.561157,23.005987 152.025360,22.909540 
	C156.537781,22.812050 158.558929,25.649429 159.500702,29.530750 
	C159.887939,31.126593 159.882004,32.817825 160.054443,34.898529 
z"/>
</svg>